# xmcd
#
# Track frame offsets:
#	150
#	26515
#	104456
#	136981
#	156119
#	169726
#	193444
#	206026
#	227368
#	243953
#	260383
#
# Disc length: 3672 seconds
#
# Revision: 1
# Processed by: cddbd v1.4PL0 Copyright (c) Steve Scherf et al.
# Submitted via: audiograbber 1.82.02
#
DISCID=920e560b
DTITLE=Rare Eath - Ma
DYEAR=1900
DGENRE=Jazz
TTITLE0=Smiling Faces
TTITLE1=Ma
TTITLE2=Tobacco Road
TTITLE3=Big John is my Name
TTITLE4=Warm Ride
TTITLE5=Fresh from the Can
TTITLE6=Get Ready
TTITLE7=Hey Big Brother
TTITLE8=I Just want to Celebrate
TTITLE9=I know I´m losing you
TTITLE10=Born to wander
EXTD=
EXTT0=
EXTT1=
EXTT2=
EXTT3=
EXTT4=
EXTT5=
EXTT6=
EXTT7=
EXTT8=
EXTT9=
EXTT10=
PLAYORDER=
